# xmcd
#
# Track frame offsets:
#	150
#	10172
#	153992
#	209686
#	279600
#
# Disc length: 3963 seconds
#
# Revision: 1
# Processed by: cddbd v1.5.2PL0 Copyright (c) Steve Scherf et al.
# Submitted via: audiograbber 1.83.01
#
DISCID=400f7905
DTITLE=Grateful Dead - 73-03-28A Springfield Civic Centre Arena, Springfield MA
DYEAR=1900
DGENRE=
TTITLE0=WRS Prelude
TTITLE1=Dark Star
TTITLE2=Eyes Of The World
TTITLE3=Playing In The Band
TTITLE4=Johnny B Goode
EXTD=
EXTT0=
EXTT1=
EXTT2=
EXTT3=
EXTT4=
PLAYORDER=
